<svg xmlns="http://www.w3.org/2000/svg" width="96" viewBox="0 0 96 96" height="96" version="1.0"><defs><clipPath id="a"><path d="M 0 30 L 23 30 L 23 92.253906 L 0 92.253906 Z M 0 30"/></clipPath><clipPath id="b"><path d="M 29 30 L 96 30 L 96 92.253906 L 29 92.253906 Z M 29 30"/></clipPath><clipPath id="c"><path d="M 0 3.753906 L 23 3.753906 L 23 24 L 0 24 Z M 0 3.753906"/></clipPath></defs><g clip-path="url(#a)"><path fill="#FFF" d="M 2.539062 30.671875 L 19.71875 30.671875 C 20.046875 30.671875 20.363281 30.734375 20.664062 30.859375 C 20.96875 30.984375 21.234375 31.164062 21.46875 31.394531 C 21.699219 31.625 21.878906 31.894531 22.003906 32.195312 C 22.128906 32.5 22.191406 32.816406 22.191406 33.140625 L 22.191406 89.78125 C 22.191406 90.109375 22.128906 90.425781 22.003906 90.726562 C 21.878906 91.03125 21.699219 91.296875 21.46875 91.527344 C 21.234375 91.761719 20.96875 91.9375 20.664062 92.066406 C 20.363281 92.191406 20.046875 92.253906 19.71875 92.253906 L 2.539062 92.253906 C 2.210938 92.253906 1.894531 92.191406 1.59375 92.066406 C 1.292969 91.9375 1.023438 91.761719 0.792969 91.527344 C 0.5625 91.296875 0.382812 91.03125 0.257812 90.726562 C 0.132812 90.425781 0.0703125 90.109375 0.0703125 89.78125 L 0.0703125 33.140625 C 0.0703125 32.816406 0.132812 32.5 0.257812 32.195312 C 0.382812 31.894531 0.5625 31.625 0.792969 31.394531 C 1.023438 31.164062 1.292969 30.984375 1.59375 30.859375 C 1.894531 30.734375 2.210938 30.671875 2.539062 30.671875 Z M 2.539062 30.671875"/></g><g clip-path="url(#b)"><path fill="#FFF" d="M 71.265625 30.082031 C 69.664062 30.019531 68.074219 30.125 66.496094 30.394531 C 64.917969 30.667969 63.386719 31.097656 61.894531 31.6875 C 60.40625 32.277344 58.996094 33.015625 57.660156 33.902344 C 56.324219 34.785156 55.097656 35.800781 53.972656 36.941406 C 53.800781 37.121094 53.59375 37.238281 53.351562 37.292969 C 53.109375 37.347656 52.871094 37.328125 52.640625 37.238281 C 52.410156 37.144531 52.222656 36.996094 52.082031 36.792969 C 51.941406 36.585938 51.871094 36.359375 51.871094 36.109375 L 51.871094 33.125 C 51.871094 32.796875 51.808594 32.480469 51.683594 32.179688 C 51.558594 31.875 51.378906 31.609375 51.148438 31.375 C 50.917969 31.144531 50.648438 30.964844 50.347656 30.839844 C 50.042969 30.714844 49.730469 30.652344 49.402344 30.652344 L 32.015625 30.652344 C 31.6875 30.652344 31.371094 30.71875 31.066406 30.84375 C 30.761719 30.972656 30.492188 31.15625 30.261719 31.390625 C 30.03125 31.625 29.855469 31.898438 29.734375 32.207031 C 29.613281 32.511719 29.558594 32.832031 29.566406 33.160156 C 29.710938 43.652344 29.566406 79.953125 29.566406 89.78125 C 29.5625 90.105469 29.621094 90.417969 29.742188 90.71875 C 29.863281 91.019531 30.039062 91.285156 30.261719 91.515625 C 30.488281 91.746094 30.75 91.925781 31.046875 92.054688 C 31.347656 92.179688 31.65625 92.246094 31.980469 92.253906 L 49.417969 92.253906 C 49.746094 92.253906 50.0625 92.191406 50.363281 92.066406 C 50.667969 91.9375 50.933594 91.761719 51.167969 91.527344 C 51.398438 91.296875 51.578125 91.03125 51.703125 90.726562 C 51.828125 90.425781 51.890625 90.109375 51.890625 89.78125 L 51.890625 58.9375 C 51.742188 57.230469 51.902344 55.550781 52.367188 53.902344 C 52.554688 53.355469 52.777344 52.824219 53.046875 52.3125 C 53.3125 51.800781 53.617188 51.3125 53.960938 50.847656 C 54.304688 50.382812 54.679688 49.949219 55.09375 49.542969 C 55.503906 49.136719 55.945312 48.765625 56.414062 48.429688 C 56.882812 48.09375 57.375 47.796875 57.890625 47.539062 C 58.410156 47.277344 58.941406 47.0625 59.492188 46.886719 C 60.042969 46.710938 60.601562 46.578125 61.171875 46.492188 C 61.742188 46.402344 62.316406 46.359375 62.894531 46.363281 C 70.472656 46.363281 73.957031 52.058594 73.957031 60.394531 L 73.957031 89.78125 C 73.957031 90.101562 74.015625 90.414062 74.136719 90.710938 C 74.257812 91.007812 74.429688 91.273438 74.652344 91.503906 C 74.878906 91.734375 75.136719 91.914062 75.429688 92.042969 C 75.722656 92.171875 76.03125 92.242188 76.351562 92.253906 L 93.460938 92.253906 C 93.789062 92.253906 94.105469 92.191406 94.40625 92.066406 C 94.707031 91.9375 94.976562 91.761719 95.207031 91.527344 C 95.4375 91.296875 95.617188 91.03125 95.742188 90.726562 C 95.867188 90.425781 95.929688 90.109375 95.929688 89.78125 L 95.929688 58.015625 C 95.929688 38.929688 85.074219 30.082031 71.265625 30.082031 Z M 71.265625 30.082031"/></g><g clip-path="url(#c)"><path fill="#FFF" d="M 10.945312 23.792969 L 11.128906 23.792969 C 17.988281 23.792969 22.191406 19.371094 22.191406 13.765625 C 22.191406 8.160156 17.933594 3.753906 11.128906 3.753906 C 4.328125 3.753906 0.0703125 8.066406 0.0703125 13.78125 C 0.0703125 19.5 4.347656 23.792969 10.945312 23.792969 Z M 10.945312 23.792969"/></g></svg>