<svg xmlns="http://www.w3.org/2000/svg" width="96" viewBox="0 0 96 96" height="96" version="1.0"><defs><clipPath id="a"><path d="M 4.539062 0 L 91.539062 0 L 91.539062 96 L 4.539062 96 Z M 4.539062 0"/></clipPath></defs><g clip-path="url(#a)"><path fill="#FFF" d="M 76.976562 67.855469 C 73.308594 67.855469 70.027344 69.300781 67.519531 71.566406 L 33.117188 51.5625 C 33.359375 50.453125 33.554688 49.34375 33.554688 48.1875 C 33.554688 47.03125 33.359375 45.921875 33.117188 44.8125 L 67.132812 25.003906 C 69.738281 27.414062 73.164062 28.90625 76.972656 28.90625 C 84.980469 28.90625 91.445312 22.449219 91.445312 14.449219 C 91.445312 6.449219 84.980469 -0.0117188 76.972656 -0.0117188 C 68.964844 -0.0117188 62.5 6.449219 62.5 14.449219 C 62.5 15.605469 62.691406 16.714844 62.933594 17.820312 L 28.921875 37.632812 C 26.316406 35.222656 22.890625 33.726562 19.078125 33.726562 C 11.070312 33.726562 4.605469 40.1875 4.605469 48.1875 C 4.605469 56.1875 11.070312 62.644531 19.078125 62.644531 C 22.890625 62.644531 26.316406 61.152344 28.917969 58.742188 L 63.269531 78.792969 C 63.027344 79.804688 62.882812 80.867188 62.882812 81.925781 C 62.882812 89.6875 69.203125 96 76.96875 96 C 84.738281 96 91.058594 89.6875 91.058594 81.925781 C 91.058594 74.164062 84.738281 67.851562 76.96875 67.851562 Z M 76.976562 67.855469"/></g></svg>